{
    "asset" : {
        "generator" : "Khronos glTF Blender I/O v1.2.75",
        "version" : "2.0"
    },
    "scene" : 0,
    "scenes" : [
        {
            "extras" : {
                "glTF2ExportSettings" : {
                    "export_animations" : 1,
                    "export_cameras" : 0,
                    "export_colors" : 1,
                    "export_extras" : 1,
                    "export_force_sampling" : 0,
                    "export_format" : "GLTF_EMBEDDED",
                    "export_image_format" : "AUTO",
                    "export_lights" : 0,
                    "export_materials" : 1,
                    "export_morph" : 1,
                    "export_normals" : 1,
                    "export_skins" : 1,
                    "export_texcoords" : 1,
                    "export_yup" : 1
                }
            },
            "name" : "Scene",
            "nodes" : [
                0
            ]
        }
    ],
    "nodes" : [
        {
            "extras" : {
                "sparkar_optimization" : {
                    "InvertedReducePercentage" : 0
                },
                "spark_blender_addon" : 1
            },
            "mesh" : 0,
            "name" : "map_62b0ef13-ab91-41ad-8f9c-054ac7941bc9_densified_mesh_texture"
        }
    ],
    "materials" : [
        {
            "doubleSided" : true,
            "emissiveFactor" : [
                0,
                0,
                0
            ],
            "name" : "material_0",
            "pbrMetallicRoughness" : {
                "baseColorTexture" : {
                    "index" : 0,
                    "texCoord" : 0
                },
                "metallicFactor" : 0,
                "roughnessFactor" : 1
            }
        }
    ],
    "meshes" : [
        {
            "name" : "map_62b0ef13-ab91-41ad-8f9c-054ac7941bc9_densified_mesh_texture",
            "primitives" : [
                {
                    "attributes" : {
                        "POSITION" : 0,
                        "NORMAL" : 1,
                        "TEXCOORD_0" : 2
                    },
                    "indices" : 3,
                    "material" : 0
                }
            ]
        }
    ],
    "textures" : [
        {
            "source" : 0
        }
    ],
    "images" : [
        {
            "bufferView" : 4,
            "mimeType" : "image/jpeg",
            "name" : "map_62b0ef13-ab91-41ad-8f9c-054ac7941bc9_densified_mesh_textured_4096"
        }
    ],
    "accessors" : [
        {
            "bufferView" : 0,
            "componentType" : 5126,
            "count" : 2806,
            "max" : [
                0.9498909711837769,
                1.1856937408447266,
                1.0275566577911377
            ],
            "min" : [
                -1.0503453016281128,
                0.0231342613697052,
                -0.9724878072738647
            ],
            "type" : "VEC3"
        },
        {
            "bufferView" : 1,
            "componentType" : 5126,
            "count" : 2806,
            "type" : "VEC3"
        },
        {
            "bufferView" : 2,
            "componentType" : 5126,
            "count" : 2806,
            "type" : "VEC2"
        },
        {
            "bufferView" : 3,
            "componentType" : 5123,
            "count" : 7308,
            "type" : "SCALAR"
        }
    ],
    "bufferViews" : [
        {
            "buffer" : 0,
            "byteLength" : 33672,
            "byteOffset" : 0
        },
        {
            "buffer" : 0,
            "byteLength" : 33672,
            "byteOffset" : 33672
        },
        {
            "buffer" : 0,
            "byteLength" : 22448,
            "byteOffset" : 67344
        },
        {
            "buffer" : 0,
            "byteLength" : 14616,
            "byteOffset" : 89792
        },
        {
            "buffer" : 0,
            "byteLength" : 117785,
            "byteOffset" : 104408
        }
    ],
    "buffers" : [
        {
            "byteLength" : 222196,
            "uri" : "data:application/octet-stream;base64,"
        }
    ]
}
