{
    "asset" : {
        "generator" : "Khronos glTF Blender I/O v1.2.75",
        "version" : "2.0"
    },
    "scene" : 0,
    "scenes" : [
        {
            "extras" : {
                "glTF2ExportSettings" : {
                    "export_animations" : 1,
                    "export_cameras" : 0,
                    "export_colors" : 1,
                    "export_extras" : 1,
                    "export_force_sampling" : 0,
                    "export_format" : "GLTF_EMBEDDED",
                    "export_image_format" : "AUTO",
                    "export_lights" : 0,
                    "export_materials" : 1,
                    "export_morph" : 1,
                    "export_normals" : 1,
                    "export_skins" : 1,
                    "export_texcoords" : 1,
                    "export_yup" : 1
                }
            },
            "name" : "Scene",
            "nodes" : [
                0
            ]
        }
    ],
    "nodes" : [
        {
            "extras" : {
                "sparkar_optimization" : {
                    "InvertedReducePercentage" : 0
                },
                "spark_blender_addon" : 1
            },
            "mesh" : 0,
            "name" : "map_5618e6fe-a7b9-4d8b-861a-542754a0dea7_densified_mesh_tex"
        }
    ],
    "materials" : [
        {
            "doubleSided" : true,
            "emissiveFactor" : [
                0,
                0,
                0
            ],
            "name" : "material_0.002",
            "pbrMetallicRoughness" : {
                "baseColorTexture" : {
                    "index" : 0,
                    "texCoord" : 0
                },
                "metallicFactor" : 0,
                "roughnessFactor" : 1
            }
        }
    ],
    "meshes" : [
        {
            "name" : "map_5618e6fe-a7b9-4d8b-861a-542754a0dea7_densified_mesh_tex",
            "primitives" : [
                {
                    "attributes" : {
                        "POSITION" : 0,
                        "NORMAL" : 1,
                        "TEXCOORD_0" : 2
                    },
                    "indices" : 3,
                    "material" : 0
                }
            ]
        }
    ],
    "textures" : [
        {
            "source" : 0
        }
    ],
    "images" : [
        {
            "bufferView" : 4,
            "mimeType" : "image/jpeg",
            "name" : "map_5618e6fe-a7b9-4d8b-861a-542754a0dea7_densified_mesh_textured_8192"
        }
    ],
    "accessors" : [
        {
            "bufferView" : 0,
            "componentType" : 5126,
            "count" : 21658,
            "max" : [
                1.2701115608215332,
                2.401580810546875,
                1.8889297246932983
            ],
            "min" : [
                -1.3116604089736938,
                -0.04870815575122833,
                -1.7556570768356323
            ],
            "type" : "VEC3"
        },
        {
            "bufferView" : 1,
            "componentType" : 5126,
            "count" : 21658,
            "type" : "VEC3"
        },
        {
            "bufferView" : 2,
            "componentType" : 5126,
            "count" : 21658,
            "type" : "VEC2"
        },
        {
            "bufferView" : 3,
            "componentType" : 5123,
            "count" : 23640,
            "type" : "SCALAR"
        }
    ],
    "bufferViews" : [
        {
            "buffer" : 0,
            "byteLength" : 259896,
            "byteOffset" : 0
        },
        {
            "buffer" : 0,
            "byteLength" : 259896,
            "byteOffset" : 259896
        },
        {
            "buffer" : 0,
            "byteLength" : 173264,
            "byteOffset" : 519792
        },
        {
            "buffer" : 0,
            "byteLength" : 47280,
            "byteOffset" : 693056
        },
        {
            "buffer" : 0,
            "byteLength" : 140172,
            "byteOffset" : 740336
        }
    ],
    "buffers" : [
        {
            "byteLength" : 880508,
            "uri" : "data:application/octet-stream;base64,"
        }
    ]
}
