<?xml version="1.0" standalone="no"?>
<!DOCTYPE svg PUBLIC "-//W3C//DTD SVG 20010904//EN"
 "http://www.w3.org/TR/2001/REC-SVG-20010904/DTD/svg10.dtd">
<svg version="1.0" xmlns="http://www.w3.org/2000/svg"
 width="1280.000000pt" height="1174.000000pt" viewBox="0 0 1280.000000 1174.000000"
 preserveAspectRatio="xMidYMid meet">
<metadata>
Created by potrace 1.15, written by Peter Selinger 2001-2017
</metadata>
<g transform="translate(0.000000,1174.000000) scale(0.100000,-0.100000)"
fill="#000000" stroke="none">
<path d="M5510 11681 c-14 -4 -51 -20 -83 -35 -40 -19 -66 -26 -84 -22 -14 4
-40 2 -58 -4 -27 -9 -42 -7 -84 10 -62 24 -71 25 -71 5 0 -20 -59 -20 -86 0
-25 19 -39 19 -58 0 -8 -9 -36 -19 -61 -24 -26 -5 -52 -14 -58 -20 -13 -13
-57 -15 -57 -2 0 5 -31 15 -69 21 -63 12 -91 11 -228 -7 -28 -3 -43 -1 -43 6
0 18 -18 13 -44 -14 -23 -22 -33 -25 -104 -25 -140 0 -266 -37 -332 -96 -40
-36 -56 -42 -62 -22 -3 9 -12 8 -31 -5 -14 -9 -37 -17 -51 -17 -14 0 -44 -16
-70 -39 -52 -45 -87 -58 -169 -64 -50 -4 -62 -1 -85 18 -23 20 -29 21 -56 10
-19 -7 -78 -11 -147 -11 -111 1 -117 2 -152 29 -26 19 -37 36 -37 54 0 24 -1
25 -46 18 -26 -3 -52 -9 -58 -11 -7 -3 -29 -45 -50 -95 -21 -50 -58 -117 -82
-148 -42 -55 -49 -61 -167 -111 -105 -44 -134 -62 -190 -114 -55 -50 -67 -67
-67 -92 0 -20 -13 -48 -37 -80 -32 -42 -39 -59 -44 -119 -5 -53 -4 -74 7 -86
8 -8 14 -22 14 -30 0 -18 -124 -139 -203 -200 -32 -24 -74 -56 -92 -70 -26
-20 -53 -28 -125 -37 -88 -11 -157 -37 -153 -58 1 -5 -2 -13 -7 -19 -4 -5 -16
-38 -25 -72 -20 -70 -25 -76 -104 -118 -50 -27 -59 -37 -90 -100 -19 -41 -36
-95 -41 -129 -7 -63 -1 -55 -119 -154 -28 -24 -56 -53 -62 -65 l-12 -22 24 20
23 20 -23 -35 c-21 -33 -38 -68 -79 -163 -9 -22 -26 -43 -38 -48 -13 -4 -29
-21 -37 -36 -18 -35 -42 -187 -33 -210 6 -15 10 -13 30 12 l23 29 22 -42 c21
-41 41 -55 41 -29 1 6 9 -4 20 -23 24 -44 27 -112 5 -104 -9 4 -18 -1 -22 -12
-4 -10 -2 -19 5 -22 8 -2 8 -10 0 -28 -10 -20 -8 -28 11 -47 27 -30 36 -62 45
-158 7 -72 6 -81 -29 -170 -24 -61 -38 -116 -41 -158 -5 -77 -33 -131 -99
-189 -49 -43 -54 -52 -29 -52 23 0 84 -64 84 -89 0 -13 6 -21 17 -21 13 0 14
-3 5 -12 -17 -17 -15 -31 2 -25 10 4 13 1 10 -8 -4 -9 7 -22 28 -35 25 -15 28
-20 14 -20 -11 0 -27 7 -37 16 -16 14 -18 14 -28 -4 -6 -11 -8 -22 -4 -26 3
-3 5 -37 4 -76 -2 -63 0 -73 21 -90 13 -11 28 -19 33 -20 6 0 11 -10 12 -21 1
-12 7 -27 13 -33 12 -12 78 -13 104 -1 15 6 17 5 11 -4 -9 -16 11 -30 45 -32
21 -1 22 -2 5 -6 -11 -3 -26 -10 -33 -15 -14 -12 -16 -32 -2 -23 6 3 10 -1 10
-10 0 -18 23 -45 39 -45 5 0 13 -9 16 -20 8 -25 24 -26 41 -2 12 15 13 14 14
-11 0 -19 4 -26 12 -21 7 4 8 3 4 -4 -4 -6 1 -23 10 -37 18 -28 100 -89 133
-100 16 -5 21 -13 18 -25 -3 -11 5 -27 18 -40 13 -12 26 -33 29 -46 4 -13 11
-24 17 -24 6 0 5 -8 -2 -22 -10 -18 -8 -24 7 -36 18 -13 17 -14 -9 -8 l-29 7
18 -30 c9 -16 28 -34 41 -40 13 -6 23 -17 21 -25 -2 -8 8 -24 21 -35 23 -20
23 -21 3 -21 -34 0 -35 -18 0 -25 57 -13 207 -90 226 -117 7 -10 31 -27 53
-38 21 -11 39 -25 39 -31 0 -5 21 -19 46 -29 26 -12 80 -53 128 -99 67 -64
100 -87 182 -126 54 -26 111 -53 127 -61 25 -14 33 -13 115 17 48 17 92 35 98
40 27 22 109 41 229 55 130 15 305 16 305 2 0 -5 19 -8 43 -8 23 -1 60 -8 82
-16 71 -27 76 -27 105 -6 15 11 55 28 88 37 34 8 99 33 144 55 46 22 100 43
121 47 20 3 37 9 37 14 0 11 -30 39 -42 39 -6 0 -9 3 -6 6 10 10 46 -15 53
-36 8 -26 40 -19 72 16 31 33 131 55 257 55 74 0 107 4 124 15 13 9 26 13 30
10 3 -3 0 -6 -6 -6 -7 0 -12 -3 -12 -7 0 -5 26 -8 58 -9 73 0 139 -35 167 -88
11 -20 26 -36 33 -36 7 0 10 -5 7 -11 -4 -6 2 -13 14 -16 18 -5 19 -8 9 -21
-10 -12 -10 -16 0 -19 6 -3 12 -14 12 -24 0 -44 52 -110 97 -123 12 -4 24 -3
27 3 3 5 15 7 26 4 11 -3 36 -2 56 1 29 6 33 10 24 22 -15 17 1 19 18 2 9 -9
15 -9 24 0 17 17 39 15 32 -3 -4 -8 -1 -15 5 -15 7 0 14 6 17 13 3 10 27 15
72 16 37 1 69 6 70 12 6 15 22 10 22 -6 0 -10 10 -15 28 -15 21 0 31 -8 42
-32 19 -41 74 -75 94 -59 10 8 16 9 21 1 3 -5 1 -10 -4 -10 -19 0 -12 -26 20
-70 l31 -42 -15 -73 c-8 -40 -12 -85 -10 -99 4 -17 -4 -42 -23 -73 -42 -69
-46 -83 -29 -89 8 -4 15 -17 15 -30 0 -17 -7 -25 -25 -30 l-26 -6 22 -37 c11
-20 15 -30 8 -23 -22 21 -26 14 -25 -43 0 -50 -3 -59 -30 -84 -22 -20 -35 -26
-45 -20 -8 5 -17 9 -22 9 -9 0 18 -65 41 -100 16 -24 18 -29 21 -50 0 -5 11
-10 23 -10 17 0 19 -3 10 -12 -19 -19 -15 -27 21 -43 18 -8 22 -12 9 -9 l-23
6 27 -42 c22 -33 33 -41 51 -37 12 2 20 1 18 -4 -3 -4 3 -10 12 -12 10 -2 6
-3 -10 -2 -39 2 -30 -13 37 -63 31 -24 81 -74 110 -110 30 -37 70 -83 91 -102
20 -19 45 -51 54 -70 10 -19 27 -52 39 -73 12 -21 21 -50 20 -65 -1 -15 24
-82 55 -149 31 -67 61 -139 66 -160 6 -21 24 -65 41 -97 39 -77 39 -109 0
-133 -16 -9 -30 -24 -30 -31 0 -23 82 -223 108 -266 24 -38 24 -43 15 -136
-11 -112 -30 -148 -94 -180 -23 -12 -39 -28 -39 -38 0 -10 -16 -33 -35 -52
-24 -23 -35 -43 -35 -63 0 -15 -5 -38 -12 -50 -6 -12 -15 -44 -19 -72 -11 -82
-47 -190 -73 -218 -21 -23 -23 -29 -14 -82 5 -32 7 -63 4 -69 -2 -6 -5 -3 -5
7 -1 9 -6 17 -12 17 -7 0 -8 -7 -3 -17 4 -10 9 -61 10 -113 1 -79 6 -104 27
-150 15 -31 41 -69 58 -85 17 -17 41 -50 54 -75 13 -25 39 -71 59 -104 19 -32
43 -81 52 -109 9 -28 37 -80 60 -115 24 -35 44 -69 44 -76 0 -7 12 -23 26 -37
14 -13 34 -37 44 -54 21 -34 38 -111 23 -102 -6 4 -8 -36 -5 -106 4 -91 9
-121 28 -158 14 -28 26 -79 33 -135 13 -117 21 -155 37 -180 8 -11 11 -23 8
-27 -9 -9 30 -105 68 -170 27 -46 114 -135 145 -149 22 -9 66 -85 99 -169 47
-121 66 -158 126 -247 27 -41 56 -89 64 -107 29 -69 11 -135 -37 -135 -27 0
-24 -30 6 -59 14 -13 25 -28 25 -33 0 -5 9 -23 21 -39 18 -26 19 -34 9 -65 -7
-19 -9 -41 -6 -49 8 -22 33 -18 39 5 7 27 35 25 39 -2 2 -18 11 -24 36 -26 18
-2 36 -10 39 -18 12 -32 132 -60 148 -34 16 26 98 49 176 49 73 0 85 3 121 27
37 26 49 28 142 31 174 4 197 3 254 -12 49 -12 58 -12 72 0 11 10 37 15 73 15
50 0 56 2 59 23 3 20 8 22 78 23 66 0 84 5 145 36 98 50 206 130 300 220 44
42 104 94 133 115 54 39 175 193 211 268 24 50 69 96 143 147 65 44 80 68 98
153 7 33 21 82 32 110 11 27 17 57 15 66 -3 9 -2 47 2 83 6 59 5 68 -12 79
-19 12 -19 14 -3 45 23 44 55 62 201 111 90 31 135 52 165 79 54 46 94 133 54
118 -13 -5 -15 0 -9 36 4 24 13 56 21 72 9 19 11 32 5 36 -6 3 -9 31 -8 62 2
58 -13 80 -24 36 -3 -13 -6 2 -5 32 0 36 -7 69 -21 95 -13 26 -19 51 -16 72 4
27 0 38 -26 62 -29 27 -32 35 -30 80 2 43 6 51 22 51 12 0 50 31 91 73 40 40
85 76 103 82 21 7 56 38 100 90 38 44 86 92 108 107 46 31 173 85 225 94 19 4
46 17 60 29 14 13 44 32 68 44 24 12 46 30 49 39 9 23 76 113 102 136 39 35
67 171 37 182 -8 3 -12 13 -9 25 3 10 1 19 -4 19 -4 0 -9 44 -10 98 -2 72 -6
96 -15 94 -7 -2 -4 6 6 17 14 15 16 24 8 33 -5 7 -13 56 -17 108 -5 74 -3 105
9 140 8 25 11 46 6 48 -5 2 -6 10 -3 18 7 19 -29 57 -84 90 -24 13 -43 26 -43
27 -1 32 -23 123 -32 134 -7 9 -13 21 -13 27 -1 6 -7 23 -15 38 -11 23 -11 37
0 81 11 48 11 57 -5 80 -16 25 -16 28 4 60 12 19 21 40 21 47 0 7 -24 37 -54
67 -30 30 -57 65 -60 78 -4 14 5 52 23 97 16 40 33 85 36 100 4 15 16 30 27
34 13 4 37 42 70 110 27 57 54 106 59 109 5 4 9 21 9 38 0 42 23 74 58 81 33
8 100 67 94 84 -2 7 5 12 15 12 25 0 50 28 99 110 43 72 229 274 362 392 59
52 120 95 187 130 89 46 114 66 230 182 155 156 214 221 238 267 9 19 46 76
82 127 35 50 67 103 70 117 3 14 7 35 10 48 2 12 23 50 45 85 23 34 49 82 59
105 10 23 26 49 35 57 10 7 34 46 53 84 19 39 43 80 54 91 11 12 23 50 30 95
7 41 19 83 27 93 19 22 33 129 19 139 -7 4 -4 23 7 53 11 28 15 50 9 56 -5 5
-30 12 -57 15 -44 6 -49 5 -76 -24 -15 -17 -41 -34 -57 -37 -15 -3 -53 -13
-83 -22 -30 -9 -84 -17 -120 -17 -36 -1 -76 -7 -89 -15 -17 -9 -42 -12 -85 -7
-57 6 -62 4 -128 -35 l-69 -42 -60 17 -59 16 -53 -29 c-28 -16 -73 -35 -98
-41 -41 -10 -53 -9 -91 8 -25 11 -60 38 -79 62 -19 23 -44 54 -56 68 -19 24
-28 27 -81 27 -65 0 -64 4 16 40 60 28 68 41 53 87 -12 35 -55 89 -68 87 -21
-4 -33 2 -33 17 0 9 -13 21 -30 27 -19 7 -31 20 -35 38 -7 30 -36 59 -83 83
-17 9 -43 34 -56 55 -33 52 -67 77 -117 85 -45 7 -99 32 -99 45 0 4 -9 18 -19
30 -11 13 -22 28 -24 34 -7 22 -29 -6 -23 -32 4 -23 3 -22 -9 6 -8 17 -20 35
-27 40 -18 11 -38 66 -53 148 -14 76 -20 92 -72 203 -20 43 -40 72 -49 72 -8
0 -36 20 -62 44 -26 24 -57 46 -69 50 -12 4 -26 20 -32 37 -14 40 -34 233 -28
272 2 19 -1 37 -9 45 -19 19 -18 38 1 22 30 -25 26 -2 -5 34 -20 22 -34 51
-38 78 -6 35 -17 52 -62 94 -30 28 -70 59 -87 68 -40 20 -83 99 -83 152 0 34
2 36 25 30 14 -4 25 -4 25 -1 0 2 -21 24 -46 47 -27 25 -60 70 -78 108 -18 36
-60 110 -93 165 -34 55 -71 129 -83 164 -12 35 -33 79 -47 98 -22 29 -24 36
-12 44 11 7 4 18 -34 54 -26 26 -58 64 -72 85 -13 21 -29 41 -34 44 -6 4 -8
13 -5 21 3 8 -3 30 -15 48 -23 37 -27 72 -11 82 6 3 10 -2 10 -12 0 -10 20
-45 45 -78 27 -36 45 -70 45 -86 0 -20 17 -43 69 -91 37 -36 77 -67 89 -70 29
-8 57 26 58 71 1 34 11 69 56 189 14 36 17 56 10 65 -6 6 -30 62 -55 124 l-45
112 24 22 c13 12 24 26 24 31 0 15 -27 8 -46 -13 -37 -41 -72 -52 -145 -45
-43 5 -69 3 -74 -3 -9 -16 -61 -13 -75 4 -6 8 -22 17 -33 21 -12 3 -28 12 -36
18 -14 11 -62 16 -161 16 -107 0 -120 -2 -120 -22 0 -14 -6 -19 -23 -16 -12 1
-36 -7 -52 -18 -45 -32 -92 -54 -113 -54 -11 0 -39 9 -63 20 -24 11 -61 20
-81 20 -20 0 -40 5 -43 10 -3 6 -20 10 -36 10 -16 0 -40 7 -52 15 -13 8 -56
19 -96 25 -40 6 -92 15 -116 21 -30 8 -53 8 -81 0 -55 -15 -62 -14 -70 12 -14
47 -33 57 -106 57 -38 0 -79 5 -91 12 -12 6 -44 16 -72 22 -44 10 -50 15 -53
39 -3 24 -11 29 -87 53 -94 29 -138 29 -246 -3 -88 -26 -149 -61 -176 -102
-28 -42 -29 -80 -3 -131 23 -46 17 -71 -26 -111 -45 -42 -92 -62 -128 -55 -17
4 -56 24 -87 46 -73 51 -212 97 -327 109 -55 6 -101 16 -117 27 -29 19 -55 63
-55 92 0 37 -37 69 -87 77 -26 4 -63 15 -83 25 -19 9 -57 21 -85 25 -27 4 -58
11 -68 17 -12 6 -41 6 -86 -3 -66 -11 -71 -11 -124 15 -64 30 -92 33 -105 9
-14 -23 -42 -9 -42 22 0 27 -31 48 -38 27 -5 -16 -33 -15 -30 0 2 7 -8 14 -22
16 -55 7 -96 44 -85 75 3 7 21 21 40 30 19 9 46 26 60 39 37 31 87 106 76 112
-4 3 -11 19 -14 35 -5 22 -17 36 -47 51 -33 17 -40 25 -40 50 0 17 4 30 9 30
23 0 71 54 77 86 3 19 4 38 0 41 -3 3 -23 -5 -43 -19 -53 -34 -73 -41 -73 -22
0 8 -7 17 -16 21 -11 4 -12 8 -4 13 21 13 -1 32 -31 28 -16 -3 -27 0 -26 6 3
13 -31 17 -63 7z m-4072 -3808 c-10 -2 -26 -2 -35 0 -10 3 -2 5 17 5 19 0 27
-2 18 -5z m132 -253 c0 -5 -9 -10 -21 -10 -11 0 -17 5 -14 10 3 6 13 10 21 10
8 0 14 -4 14 -10z"/>
<path d="M1703 10376 c-24 -20 -25 -26 -14 -40 18 -21 23 -20 55 9 52 49 14
78 -41 31z"/>
<path d="M1014 10325 c-8 -19 23 -68 39 -62 12 4 28 63 19 72 -11 11 -53 4
-58 -10z"/>
<path d="M1644 10288 c-9 -18 -28 -45 -42 -60 l-26 -28 28 0 c44 0 85 27 94
63 5 17 7 38 4 45 -8 24 -41 12 -58 -20z"/>
<path d="M1275 10286 c-11 -7 -35 -17 -52 -21 -18 -3 -33 -9 -33 -12 0 -18 43
-71 54 -67 21 8 88 93 81 104 -9 14 -27 12 -50 -4z"/>
<path d="M1130 10225 c-15 -18 -5 -35 20 -35 10 0 22 5 25 10 7 11 -12 40 -25
40 -4 0 -13 -7 -20 -15z"/>
<path d="M1382 10218 c-33 -33 6 -91 47 -69 24 13 30 31 20 59 -9 24 -47 30
-67 10z"/>
<path d="M1001 10169 c-19 -8 -21 -12 -11 -24 17 -21 43 -19 57 4 10 16 9 20
-3 25 -9 3 -16 6 -17 5 -1 0 -13 -5 -26 -10z"/>
<path d="M9440 10142 c0 -5 7 -13 16 -16 10 -4 14 -1 12 6 -5 15 -28 23 -28
10z"/>
<path d="M243 8434 c-11 -5 -19 -44 -9 -44 19 0 66 25 63 34 -4 12 -35 18 -54
10z"/>
<path d="M283 8393 c-20 -8 -15 -23 7 -23 11 0 20 7 20 15 0 15 -6 17 -27 8z"/>
<path d="M606 8392 c-8 -13 10 -52 24 -52 14 0 12 23 -3 45 -10 12 -16 14 -21
7z"/>
<path d="M325 8370 c-3 -5 -1 -10 4 -10 6 0 11 5 11 10 0 6 -2 10 -4 10 -3 0
-8 -4 -11 -10z"/>
<path d="M387 8354 c-14 -14 6 -30 33 -26 36 5 39 17 8 26 -29 7 -33 7 -41 0z"/>
<path d="M10410 8292 c0 -6 5 -12 11 -14 8 -3 6 -10 -5 -21 -10 -9 -13 -17 -7
-17 6 0 8 -7 5 -15 -8 -19 10 -19 26 0 6 8 8 20 4 27 -5 7 -9 19 -9 27 0 16
-25 28 -25 13z"/>
<path d="M616 8274 c-12 -32 21 -47 43 -20 10 12 8 17 -8 25 -26 14 -28 14
-35 -5z"/>
<path d="M10465 8230 c-8 -13 -1 -24 14 -19 6 3 7 10 2 18 -6 10 -10 10 -16 1z"/>
<path d="M570 8120 c0 -11 5 -20 10 -20 6 0 10 9 10 20 0 11 -4 20 -10 20 -5
0 -10 -9 -10 -20z"/>
<path d="M487 8123 c-24 -23 16 -72 49 -59 19 7 18 22 -6 46 -21 21 -32 24
-43 13z"/>
<path d="M10855 7970 c-7 -12 2 -30 16 -30 12 0 12 27 0 35 -5 3 -12 1 -16 -5z"/>
<path d="M10840 7910 c0 -5 4 -10 9 -10 6 0 13 5 16 10 3 6 -1 10 -9 10 -9 0
-16 -4 -16 -10z"/>
<path d="M12580 7745 c-9 -10 -6 -19 9 -34 27 -27 82 -27 141 0 42 19 43 21
25 32 -30 17 -161 18 -175 2z"/>
<path d="M12370 7681 c0 -10 50 -25 58 -16 8 7 1 11 -30 19 -16 3 -28 2 -28
-3z"/>
<path d="M12520 7670 c0 -5 5 -10 10 -10 6 0 10 5 10 10 0 6 -4 10 -10 10 -5
0 -10 -4 -10 -10z"/>
<path d="M1344 7558 c-5 -8 -2 -9 9 -5 10 4 17 2 17 -4 0 -6 6 -9 14 -6 7 3
19 0 25 -6 9 -9 14 -8 21 3 14 21 12 30 -5 30 -8 0 -15 -4 -15 -10 0 -6 -9 -6
-26 0 -32 12 -31 12 -40 -2z"/>
<path d="M1455 7550 c-3 -5 -2 -10 4 -10 5 0 13 5 16 10 3 6 2 10 -4 10 -5 0
-13 -4 -16 -10z"/>
<path d="M1375 7520 c-3 -5 -1 -10 4 -10 6 0 11 5 11 10 0 6 -2 10 -4 10 -3 0
-8 -4 -11 -10z"/>
<path d="M1460 7521 c0 -6 -6 -8 -12 -6 -20 7 -39 -10 -32 -28 7 -18 24 -23
24 -7 0 6 -5 10 -11 10 -5 0 -7 5 -4 10 5 8 11 8 20 0 9 -7 16 -6 24 4 8 10 9
16 1 21 -5 3 -10 2 -10 -4z"/>
<path d="M1372 7488 c5 -15 28 -18 29 -3 0 6 -7 12 -17 13 -10 3 -15 -1 -12
-10z"/>
<path d="M5403 6323 c-7 -3 -13 -10 -13 -17 0 -8 -10 -26 -22 -41 -21 -27 -21
-28 -3 -41 30 -22 43 -17 65 25 26 51 12 88 -27 74z"/>
<path d="M5184 5969 c-3 -6 -1 -16 5 -22 8 -8 11 -5 11 11 0 24 -5 28 -16 11z"/>
<path d="M10366 4883 c1 -27 5 -47 8 -45 3 1 10 2 15 2 13 0 20 63 9 78 -22
26 -34 12 -32 -35z"/>
<path d="M10294 4776 c-8 -21 0 -81 10 -78 5 2 13 -3 18 -12 5 -9 13 -16 17
-16 17 0 21 33 8 49 -8 9 -17 28 -21 44 -7 29 -23 36 -32 13z"/>
<path d="M10378 4456 c-16 -12 -28 -25 -28 -29 0 -14 27 -7 44 12 27 30 15 42
-16 17z"/>
<path d="M11460 4150 c0 -5 5 -10 10 -10 6 0 10 5 10 10 0 6 -4 10 -10 10 -5
0 -10 -4 -10 -10z"/>
<path d="M10936 3874 c-11 -28 -6 -51 14 -69 31 -28 45 -8 29 44 -12 42 -32
53 -43 25z"/>
<path d="M11893 3773 c-10 -30 -35 -53 -56 -53 -19 0 -19 -1 -4 -18 10 -10 17
-29 17 -43 0 -36 -32 -91 -57 -100 -20 -7 -23 -5 -23 16 0 14 -5 25 -10 25
-16 0 -26 -33 -12 -38 14 -4 16 -38 3 -47 -5 -3 -12 4 -16 15 -3 11 -10 20
-15 20 -16 0 -42 -48 -34 -62 5 -7 9 -25 10 -40 1 -21 -3 -28 -17 -28 -24 0
-32 -15 -21 -37 11 -20 -12 -51 -23 -33 -11 18 -24 10 -51 -30 -19 -28 -24
-47 -20 -65 4 -14 2 -25 -4 -25 -5 0 -10 8 -10 18 0 28 -10 33 -39 18 -42 -22
-74 -62 -68 -86 3 -11 1 -18 -4 -14 -5 3 -9 12 -9 20 0 11 -4 12 -19 4 -11 -5
-31 -10 -45 -10 -14 0 -29 -6 -33 -13 -11 -18 -51 -28 -56 -14 -2 7 -15 3 -32
-11 -17 -14 -42 -22 -64 -22 -46 0 -61 -14 -61 -60 0 -24 -11 -50 -35 -84 -35
-50 -35 -50 -29 -130 4 -47 15 -97 25 -118 11 -21 19 -50 19 -65 0 -15 7 -37
16 -48 10 -14 13 -31 9 -56 -4 -21 -2 -40 4 -43 6 -4 0 -21 -15 -43 -13 -20
-39 -66 -57 -103 -17 -37 -40 -71 -51 -76 -10 -5 -30 -36 -43 -69 -35 -84 -30
-151 20 -230 30 -47 34 -62 25 -78 -17 -32 -5 -124 20 -150 12 -13 22 -29 22
-36 0 -21 80 -91 103 -91 12 0 43 -11 69 -25 26 -14 53 -25 60 -25 8 0 45 15
83 33 39 19 92 37 119 40 69 10 91 28 111 89 10 29 26 70 36 90 11 21 32 93
48 160 16 68 44 155 61 193 17 39 38 98 46 133 8 35 24 86 35 115 12 29 48
130 80 224 50 146 59 183 59 242 0 57 3 72 19 83 10 7 24 32 31 55 11 37 11
46 -4 68 -9 14 -14 30 -11 35 3 5 0 18 -6 28 -12 20 -7 52 9 52 5 0 16 -18 25
-40 17 -43 44 -61 58 -39 5 8 16 36 25 62 16 48 16 48 -11 87 -20 28 -26 48
-24 77 2 21 0 44 -4 50 -4 7 -5 23 -2 36 4 16 -1 40 -14 65 -12 23 -21 54 -21
71 0 18 -11 40 -30 61 -16 18 -30 38 -30 45 0 8 -8 20 -19 27 -10 7 -20 22
-22 32 -5 26 -27 32 -36 9z"/>
<path d="M11123 3772 c-29 -4 -29 -17 -1 -36 27 -19 46 -6 32 21 -6 12 -17 17
-31 15z"/>
<path d="M11000 3740 c0 -13 28 -25 38 -16 3 4 0 11 -8 16 -20 13 -30 12 -30
0z"/>
<path d="M11233 3655 c0 -15 5 -25 13 -25 8 0 14 7 14 15 0 8 6 15 13 15 8 0
7 4 -3 10 -25 16 -37 11 -37 -15z"/>
<path d="M12016 3011 c-10 -11 -16 -28 -14 -38 3 -14 8 -11 22 15 20 40 17 50
-8 23z"/>
<path d="M10855 2970 c3 -5 8 -10 11 -10 2 0 4 5 4 10 0 6 -5 10 -11 10 -5 0
-7 -4 -4 -10z"/>
<path d="M9680 2230 c0 -11 5 -20 10 -20 6 0 10 9 10 20 0 11 -4 20 -10 20 -5
0 -10 -9 -10 -20z"/>
</g>
</svg>
