{
    "asset" : {
        "generator" : "Khronos glTF Blender I/O v1.2.75",
        "version" : "2.0"
    },
    "scene" : 0,
    "scenes" : [
        {
            "extras" : {
                "glTF2ExportSettings" : {
                    "export_animations" : 1,
                    "export_cameras" : 0,
                    "export_colors" : 1,
                    "export_extras" : 1,
                    "export_force_sampling" : 0,
                    "export_format" : "GLTF_EMBEDDED",
                    "export_image_format" : "AUTO",
                    "export_lights" : 0,
                    "export_materials" : 1,
                    "export_morph" : 1,
                    "export_normals" : 1,
                    "export_skins" : 1,
                    "export_texcoords" : 1,
                    "export_yup" : 1
                }
            },
            "name" : "Scene",
            "nodes" : [
                0
            ]
        }
    ],
    "nodes" : [
        {
            "extras" : {
                "sparkar_optimization" : {
                    "InvertedReducePercentage" : 0
                },
                "spark_blender_addon" : 1
            },
            "mesh" : 0,
            "name" : "map_b763e61e-0989-462f-bc03-e1f4a3524f43_densified_mesh_texture"
        }
    ],
    "materials" : [
        {
            "doubleSided" : true,
            "emissiveFactor" : [
                0,
                0,
                0
            ],
            "name" : "material_0",
            "pbrMetallicRoughness" : {
                "baseColorTexture" : {
                    "index" : 0,
                    "texCoord" : 0
                },
                "metallicFactor" : 0,
                "roughnessFactor" : 1
            }
        }
    ],
    "meshes" : [
        {
            "name" : "map_b763e61e-0989-462f-bc03-e1f4a3524f43_densified_mesh_texture",
            "primitives" : [
                {
                    "attributes" : {
                        "POSITION" : 0,
                        "NORMAL" : 1,
                        "TEXCOORD_0" : 2
                    },
                    "indices" : 3,
                    "material" : 0
                }
            ]
        }
    ],
    "textures" : [
        {
            "source" : 0
        }
    ],
    "images" : [
        {
            "bufferView" : 4,
            "mimeType" : "image/jpeg",
            "name" : "map_b763e61e-0989-462f-bc03-e1f4a3524f43_densified_mesh_textured_4096"
        }
    ],
    "accessors" : [
        {
            "bufferView" : 0,
            "componentType" : 5126,
            "count" : 17617,
            "max" : [
                2.1192173957824707,
                3.178630828857422,
                2.2809431552886963
            ],
            "min" : [
                -1.9912594556808472,
                -0.07802832126617432,
                -1.8293735980987549
            ],
            "type" : "VEC3"
        },
        {
            "bufferView" : 1,
            "componentType" : 5126,
            "count" : 17617,
            "type" : "VEC3"
        },
        {
            "bufferView" : 2,
            "componentType" : 5126,
            "count" : 17617,
            "type" : "VEC2"
        },
        {
            "bufferView" : 3,
            "componentType" : 5123,
            "count" : 73299,
            "type" : "SCALAR"
        }
    ],
    "bufferViews" : [
        {
            "buffer" : 0,
            "byteLength" : 211404,
            "byteOffset" : 0
        },
        {
            "buffer" : 0,
            "byteLength" : 211404,
            "byteOffset" : 211404
        },
        {
            "buffer" : 0,
            "byteLength" : 140936,
            "byteOffset" : 422808
        },
        {
            "buffer" : 0,
            "byteLength" : 146598,
            "byteOffset" : 563744
        },
        {
            "buffer" : 0,
            "byteLength" : 177850,
            "byteOffset" : 710344
        }
    ],
    "buffers" : [
        {
            "byteLength" : 888196,
            "uri" : "data:application/octet-stream;base64,"
        }
    ]
}
